<?xml version="1.0" encoding="UTF-8"?>
<svg id="Layer_1" data-name="Layer 1" xmlns="http://www.w3.org/2000/svg" viewBox="0 0 279.2 188.85">
  <defs>
    <style>
      .cls-1 {
        fill: #fff;
      }
    </style>
  </defs>
  <path class="cls-1" d="M240.56,69.04c.1.07.23.12.38.18.15.05.31.09.49.12.18.03.35.05.53.05.32,0,.6-.04.85-.13.24-.08.44-.2.6-.34.16-.15.28-.31.36-.5.08-.19.12-.39.12-.6,0-.27-.05-.5-.16-.7-.1-.2-.26-.37-.47-.52-.21-.15-.47-.28-.78-.4-.25-.1-.46-.19-.62-.29-.16-.1-.28-.21-.36-.33-.08-.12-.11-.27-.11-.44,0-.09.02-.19.06-.29.04-.1.1-.18.18-.27.08-.08.19-.14.32-.19.13-.05.29-.07.48-.08.17,0,.32.02.45.05.13.03.25.06.35.1.1.04.18.08.24.11l.2-.58c-.08-.05-.18-.09-.3-.13-.12-.04-.25-.07-.4-.1-.15-.03-.32-.04-.51-.04-.27,0-.51.04-.73.11-.22.07-.4.18-.56.31-.16.13-.28.29-.36.47-.08.18-.13.38-.13.59,0,.26.06.48.18.68.12.19.28.36.5.51.22.14.47.27.77.37.25.09.44.19.6.3.15.1.26.22.33.35.07.13.1.28.1.45,0,.19-.05.35-.14.49-.09.14-.22.25-.39.33-.17.08-.38.12-.62.12-.16,0-.32-.02-.48-.05-.15-.03-.3-.08-.43-.13-.14-.05-.25-.11-.36-.18l-.18.59Z"/>
  <path class="cls-1" d="M249.6,69.31h.69l-.34-5.48h-.9l-.98,2.65c-.12.34-.23.67-.33.97-.1.31-.18.6-.25.87h-.02c-.07-.28-.15-.58-.24-.88-.09-.31-.2-.63-.31-.96l-.94-2.65h-.9l-.38,5.48h.68l.15-2.35c.02-.28.03-.56.05-.84.01-.28.03-.56.04-.83,0-.27.02-.52.02-.75h.02c.08.33.17.66.28,1.02.11.36.23.73.36,1.11l.89,2.61h.54l.97-2.66c.14-.38.26-.74.38-1.08.11-.34.22-.68.31-1h.02c0,.17,0,.36,0,.55,0,.2,0,.4.02.6,0,.21.02.41.03.62.01.21.02.4.03.6l.14,2.41Z"/>
  <path class="cls-1" d="M224.67,76.17c-5.16.63-9.98,1.08-12.15.97,1.15-2.65,12.58-7.34,12.25-9.82-.55-4.1-6.31-.66-8.07.47-1.77,1.13-11.04,10.43-11.06,10.54-.01.09-.31.18-.82.28-3.21.59-15.01,1.38-24.14,1.64-20.26.59-84.84.18-98.13-2.99,2.37-2.13,5.87-4.95,8.16-6.41,5.46-3.74,3-7.62-3.69-3.71-2.47,1.44-4.96,3.33-7.09,5.22-2.94,2.8-4.24,4.18-4.86,4.3-2.89.58-20.32-2.23-30.13-4.68-12.46-3.11-3.18-8.95-8.34-4.72-1.5,1.23-1.92,3.23-.36,4.62,1.95,1.74,13.58,3.82,22.36,4.94,3.88.5,10.34,1.59,14.16,1.81-2.82,5.34-16.8,17.33-21.02,21.67-.46.71-1.39,2.34-.51,2.84.14.09.34.14.59.14,2.16.1,4.73-1.98,6.35-3.16,2.48-1.81,4.72-3.92,6.77-6.2,1.77-1.97,3.41-4.05,5.14-6.04.94-1.07,1.89-2.12,2.87-3.14,1.76-1.85,4.18-4.27,6.44-5.55.5-.28,10.58,1.1,11.86,1.16,19.79.95,33.91,1.92,51.76,1.99,14.63.05,30.31-.14,45-.69,6.44-.24,12.26-.65,14.38-.98,3.44-.54-10.37,11.12-12.86,13.02-2.11,1.6-6.1,5.24-7.94,7.15-.76.78-3.5,2.96-1.83,4.04.05.03.1.06.15.08,1.68.84,4.59-1.29,5.78-2.15,2.38-1.72,6.3-5.49,8.31-7.61,3.05-3.2,12.24-14.21,15.21-15.25.91-.32,10.05-1.35,17.36-2.17,2.8-.31,5.53-.6,8.29-.96,8.78-1.12,20.41-3.2,22.36-4.94,1.55-1.39,1.13-3.39-.36-4.62-5.16-4.23,4.12,1.61-8.34,4.72-3.12.78-7,1.59-10.95,2.32-4.3.8-8.49,1.34-12.86,1.87"/>
  <path class="cls-1" d="M85.44,95.63c1.32-3.63-1.19-4.71-4.1-2.98-1.14.68-2.41,1.82-3.79,3.41-2.23,2.57-5.28,5.64-6.4,6.95-4.33,5.05-9.98-.81-4.21-4.35.9-.54,3.16-2.23,4.04-2.82,1.8-1.19,3.54-2.46,5.24-3.8.96-.76,1.89-1.53,2.82-2.32,3.97-3.42,7.72-6.82,11.25-10.2,6.88-5.04,10.99-11.4,18.72-16.03,1.11-.66,5.2-2.68,5.78-.41.37,1.43-1.4,2.3-2.28,3.04-4.39,3.67-25.91,18.36-26.52,22.55,7.47.76,5.29,5.65,1.78,10.04-2.18,2.73-1.27,5.16,1.49,4.08-.21.61-2.62,2.44-4.77,2.02-2.05-.4-2.96-2.13-2.42-3.84.55-1.75,2.34-2.48,3.38-5.35"/>
  <path class="cls-1" d="M166.5,79.66c3.26-.57,4.04-2.34,3.59-4.44-.6-2.82-3.42-6.24-5.43-8.18-3.65-3.53-9.59-6.47-14.3-8.23-6.76-2.53-13.92-3.86-19.24-3.61-5.09-.07-9.24,2.03-11.09,4.88-.88,1.35-1.25,2.87-.96,4.41,2.05,10.81,39.28,16.6,47.43,15.17M117.46,93.02c.92-.32,1.83-.77,2.44-1.44,1.39-1.53.84-2.91-1.54-2.06-.6.21-1.12.58-1.61,1-.29.25-.57.56-.79.9-1.47,2.31.04,2.1,1.5,1.59ZM132.91,92.03c.6-.29,4.56-2.36,3.04-3.46-.23-.16-.59-.18-1-.11-.9.16-2.06.76-2.62,1.24-.42.37-.85.87-1.06,1.42-.75,1.96.55,1.44,1.64.91ZM140.49,99.24c-3.42,5.33-9.59,7.45-12.58,3.78-1.3-1.59-1.63-2.88-2.03-4.24-3.18,5-12.44,9.97-14.59,2.58-.27-.91-.57-1.71-1.25-1.99-.23-.09-.42.07-.66.14-1.32.59-2.06,1-3.19,1.87-1.63,1.24-3.33,2.46-5.25,3.22-.87.34-1.95.58-2.85.23-.22-.09-.44-.21-.63-.39-.84-.74-.91-1.98-.54-2.97.24-.65.65-1.21,1.14-1.69,1.1-1.11,2.73-1.71,2.51-3.6-.1-.83-.84-1.24-1.62-1.18-2.7.21-2.85,6.15-7.49,5.06,3.62-1.8,7.81-12.33,12.81-10.85,2.03.59,2.18,2.54,1.55,4.27-.63,1.71-1.71,3.55-1.83,5.39-.17,2.46,1.99.85,3.97-1.11,4.19-4.12,4.55-8.02,6.65-10.25,4.76-5.04,15.72-1.64,8.27,5.31-.5.47-1.09.95-1.76,1.45-1.49,1.1-6.08,3.15-6.33,4.31-1.16,5.73,5.9,3.43,8.66-.23,2.74-3.63,4.45-8.48,7.6-11.93,5.23-5.74,12.84-.56,9.55,3.89-1.29,1.74-4.54,3.54-7.04,5.01-1.71,1.01-3.06,1.86-3.19,2.44-.93,7.62,6.96,2.82,9.51-.02,2.22-2.47,3.75-5.41,6.47-7.42,1.41-1.05,2.94-1.85,4.45-2.3,1.19-.35,2.45-.52,3.58-.54,2.12-.05,3.82.42,3.88,1.22.04.59-1.44.71-3.19.94-3.49.46-6.77,1.87-8.8,4.9-2.92,4.36.41,6.95,5.39,2.94,1.7-1.37,3.8-3.68,5.38-5.17,1.75-1.65,10.81-11.15,9.04-10.67-4.75,1.27-25.9-2.82-30.58-4.07-5.02-1.34-9.75-3.1-13.22-5.41-7.35-4.89-7.79-13.2.18-17.18,11.22-5.6,34.47,1.92,43.71,10.62,5.73,5.4,7.82,9.6,4.22,15.41-2.55,3.53-8.86,12.81-14.15,18.5-2.09,2.26-6.01,5.25-9.61,5.7-3.99.5-6.3-2.14-6.12-5.99Z"/>
  <path class="cls-1" d="M166.66,100.51h0c2.69.46,5.3-1.14,7.39-2.65,1.53-1.1,4.18-2.6,3.7-4.87-.47-2.27-2.59-2.08-4.41-1.56-2.36.67-4.76,2.02-6.48,3.78-.69.69-1.09,1.52-1.4,2.44-.39,1.13-.45,2.48.94,2.81.09.02.18.04.27.05M172.35,103.15c-2.4,1.11-2.52,1.23-5.08,1.93-.98.27-3.02.6-3.91.48-6.01-.85-3.23-8.9-.46-12.06,3.63-4.12,8.36-6.32,13.87-6.49,5.16-.16,9.34,1.89,5.29,7.8-2.36,3.45-6.84,7.03-9.71,8.34Z"/>
  <path class="cls-1" d="M200.21,104.17c-2.35-.86-.81-3.59,1.08-4.61,2.45-1.32,5.6-1.34,7.6-3.45.93-.97.53-4.21-.31-4.7-1.91-1.12-5.01,1.82-6.49,2.94-.69.53-5.28,3.27-5.52,1.12-.11-1.08,1.7-1.95,2.49-2.28,5.86-2.42,8.76-6.71,12.8-10.88,1.22-1.26,2.53-2.16,3.76-1.64.57.25.77.97.77,1.55,0,.93-.59,1.7-1.2,2.34-2.2,2.33-5.22,5.43-4.02,9.04,1.24,3.78,4.68.05,6.36.52.56.17.63,1.03.02,1.62-2.34,2.28-11.55,6.42-12.27,6.81-1.24.67-2.47,1.13-3.79,1.58-.49.16-.92.16-1.28.02"/>
  <path class="cls-1" d="M174.23,89.29c.25,1.21.86,15.29,18.71,2.01-9.16,13.54-21.77,11.62-20.98-1.76l2.27-.25Z"/>
</svg>